# xmcd
#
# Track frame offsets:
#	150
#	14457
#	27250
#	42707
#	50335
#	62215
#	77575
#	88712
#	100580
#	111700
#	123940
#	134405
#	151905
#	163677
#	179800
#
# Disc length: 2544 seconds
#
# Revision: 0
# Processed by: cddbd v1.4PL0 Copyright (c) Steve Scherf et al.
# Submitted via: dBpowerAMP V4.0
#
DISCID=ce09ee0f
DTITLE=On The Road (especially for truckers) - Vol 2
DYEAR=1900
DGENRE=Country
TTITLE0=Roland Konings - Kiss Me Once, Kiss Me Twice
TTITLE1=Henny Weijmans - Sunlight-Moonlight-Starlight
TTITLE2=Andy - Blue Brown Eyed Lady
TTITLE3=The Black Devils - Rave One
TTITLE4=Roland Konings - Take A Letter  Maria
TTITLE5=Rocky Taylor - A Love Worth Waiting For
TTITLE6=Hans Van Aalst - You' re The Reason Why
TTITLE7=Fashion - That's Amore
TTITLE8=The Tamara's - Hey Joe
TTITLE9=The Pleasure Band - Little Darling
TTITLE10=Mart - Picture Of You
TTITLE11=Fashion - I Promised Myself
TTITLE12=The Black Devils - Hello Josephine
TTITLE13=Rocky Taylor - Nobody Knows
TTITLE14=Roland Konings - First Taste Of Love
EXTD=
EXTT0=
EXTT1=
EXTT2=
EXTT3=
EXTT4=
EXTT5=
EXTT6=
EXTT7=
EXTT8=
EXTT9=
EXTT10=
EXTT11=
EXTT12=
EXTT13=
EXTT14=
PLAYORDER=
